<svg width="32" height="32" viewBox="0 0 32 32" fill="none" xmlns="http://www.w3.org/2000/svg">
<g clip-path="url(#clip0_568_1079)">
<path d="M30.2218 25.7777C30.2218 26.2492 30.0345 26.7013 29.7011 27.0347C29.3677 27.3681 28.9155 27.5554 28.444 27.5554H3.55512C3.08363 27.5554 2.63144 27.3681 2.29804 27.0347C1.96464 26.7013 1.77734 26.2492 1.77734 25.7777V6.22211C1.77734 5.75062 1.96464 5.29843 2.29804 4.96503C2.63144 4.63164 3.08363 4.44434 3.55512 4.44434H19.5178L18.476 6.22211H3.55512V25.7777H28.444V13.6506H30.2218V25.7777Z" fill="black"/>
<path d="M13.8847 13.5311L8.53537 21.3053L4.93359 18.1196L5.87582 17.0547L8.27404 19.1755L13.8971 11.0049L19.8971 19.9071L24.6376 13.6431H26.4216L19.8296 22.3516L13.8847 13.5311Z" fill="black"/>
<path d="M23.8698 1.01664L18.7854 9.78108C18.6671 9.95471 18.5992 10.1577 18.5892 10.3676C18.5792 10.5774 18.6275 10.7859 18.7287 10.97C18.83 11.1541 18.9802 11.3066 19.1628 11.4105C19.3454 11.5144 19.5532 11.5658 19.7632 11.5589H29.9409C30.1509 11.5658 30.3587 11.5144 30.5413 11.4105C30.7239 11.3066 30.8741 11.1541 30.9754 10.97C31.0766 10.7859 31.1249 10.5774 31.1149 10.3676C31.1049 10.1577 31.037 9.95471 30.9187 9.78108L25.8343 1.01664C25.734 0.845134 25.5906 0.702872 25.4182 0.604008C25.2459 0.505145 25.0507 0.453125 24.852 0.453125C24.6534 0.453125 24.4582 0.505145 24.2858 0.604008C24.1135 0.702872 23.9701 0.845134 23.8698 1.01664Z" fill="black"/>
</g>
<defs>
<clipPath id="clip0_568_1079">
<rect width="32" height="32" fill="white"/>
</clipPath>
</defs>
</svg>
